<svg id="e1RwjNXpZWd1" xmlns="http://www.w3.org/2000/svg" xmlns:xlink="http://www.w3.org/1999/xlink" viewBox="0 0 300 300" shape-rendering="geometricPrecision" text-rendering="geometricPrecision"><path d="M257.9278,149.61265c0,10.6949-7.25981,15.47288-19.03394,22.0476-34.98129,19.53368-125.72012,73.13636-165.59474,96.71781-7.06743,4.17961-16.0121,7.44451-24.81037,3.00546-5.72011-3.38717-7.82536-8.9035-7.7163-16.00228.6862-44.66133.06556-168.16946.06556-208.2487c0-15.34157,1.54895-19.0109,10.50123-22.9223c11.2299-3.38318,17.22073,1.78816,27.27334,7.58074C117.76219,54.35,211.96474,115.63065,248.8826,135.45132c9.0452,4.85624,9.0452,12.99611,9.0452,14.16134v-.00001ZM74.77661,103.75531c-8.47462.19083-7.30603,9.00284-7.30603,9.00284-.20234,51.74017-.24399,77.61026-.12497,77.61026.17854,0-.13171,8.03455,7.50769,8.16626c5.09294.08781,7.63941-2.54647,7.6394-7.90283l-.16511-77.43779c0,0,.92363-9.62957-7.55099-9.43874h.00001Zm55.40334,12.87174c-8.47462.1303-7.22992,8.97687-7.22992,8.97687-.11902,31.95431-.11902,47.93146,0,47.93146.17854,0-.33279,7.71566,7.30662,7.80559c5.09294.05995,7.67438-2.46472,7.74432-7.57404l-.23155-48.16301c0,0,.88516-9.10717-7.58946-8.97687h-.00001Zm52.85589,3.46926c-8.47462.11627-7.431,8.03489-7.431,8.03489-.19316,26.79169-.23023,40.18754-.1112,40.18754.17854,0-.02051,9.44629,7.6189,9.52654c5.09294.0535,7.79516-2.99258,8.10666-9.13825l-.46726-40.57582c0,0,.75852-8.15117-7.7161-8.03489v-.00001ZM156.16986,132.4983c-8.47462.07086-7.431,7.84682-7.431,7.84682-.11902,13.38891-.11902,20.08336,0,20.08336.17854,0-.07304,7.26538,7.50769,7.26538c5.05382,0,7.60029-2.42179,7.63941-7.26538v-20.08336c0,0,.75852-7.91768-7.7161-7.84682ZM102.47828,87.87476c-8.47462.25361-7.33722,9.4274-7.33722,9.4274-.18686,71.96892-.22078,107.95338-.10176,107.95338.17854,0-.12373,8.40168,7.51567,8.57672c5.09294.11669,7.70379-2.69484,7.83257-8.43461l-.15036-107.83963c0,0,.71572-9.93687-7.7589-9.68326Z" transform="translate(0 0.000001)" fill="#86a4d3" stroke-width="0.6" stroke-linecap="round" stroke-linejoin="round"/></svg>
